<?xml version="1.0" encoding="UTF-8" standalone="no"?>
<!-- Created with Inkscape (http://www.inkscape.org/) -->

<svg
   width="164.44411mm"
   height="54.27058mm"
   viewBox="0 0 164.44411 54.270579"
   version="1.1"
   id="svg1"
   xml:space="preserve"
   inkscape:version="1.4.2 (ebf0e940d0, 2025-05-08)"
   sodipodi:docname="banner.svg"
   xmlns:inkscape="http://www.inkscape.org/namespaces/inkscape"
   xmlns:sodipodi="http://sodipodi.sourceforge.net/DTD/sodipodi-0.dtd"
   xmlns="http://www.w3.org/2000/svg"
   xmlns:svg="http://www.w3.org/2000/svg"><sodipodi:namedview
     id="namedview1"
     pagecolor="#ffffff"
     bordercolor="#000000"
     borderopacity="0.25"
     inkscape:showpageshadow="2"
     inkscape:pageopacity="0.0"
     inkscape:pagecheckerboard="0"
     inkscape:deskcolor="#d1d1d1"
     inkscape:document-units="mm"
     inkscape:zoom="1.036062"
     inkscape:cx="128.85329"
     inkscape:cy="207.99914"
     inkscape:window-width="2560"
     inkscape:window-height="1371"
     inkscape:window-x="0"
     inkscape:window-y="0"
     inkscape:window-maximized="1"
     inkscape:current-layer="layer1"
     showgrid="false" /><defs
     id="defs1" /><g
     inkscape:label="Layer 1"
     inkscape:groupmode="layer"
     id="layer1"
     transform="translate(-149.97768,-98.405219)"><path
       id="path3"
       style="fill:#3cd0ac;fill-opacity:1;stroke:none;stroke-width:0.801605"
       d="m 178.36561,98.405219 a 28.387941,28.387941 0 0 0 -28.38793,28.387921 28.387941,28.387941 0 0 0 11.47682,22.8012 c 2.86063,-2.47552 5.07575,-5.52454 6.90449,-8.91729 0,0 -2.39278,0.3272 -4.17597,-0.15813 -1.78319,-0.48533 -3.4019,-1.60452 -3.41943,-2.17816 -0.0175,-0.57365 5.26101,-1.35281 7.86618,-3.81476 2.43608,-2.30215 4.62353,-7.12576 6.16242,-8.23877 1.53888,-1.11302 3.76928,-0.5979 3.76928,-0.5979 l 9.39012,-9.6609 c 0,0 2.07666,2.43742 2.25723,2.97914 0.18058,0.54174 -0.12413,1.33175 -0.34985,1.76062 -0.22572,0.42887 -1.21835,1.82139 -0.98134,2.49855 0.23701,0.67717 0.76698,1.33876 1.27486,1.3839 0.50787,0.0452 2.04277,-2.0314 2.04277,-2.0314 0,0 0.98159,0.65463 0.66559,1.83968 -0.31601,1.18503 -4.24294,8.7415 -4.46639,10.40143 -0.22346,1.65993 -0.008,5.58635 1.33273,10.39058 0,0 -1.17615,-0.41101 -1.31723,-0.22479 -0.14107,0.18622 0.91014,3.47323 2.20297,4.89376 0,0 -1.80354,-1.06169 -2.09083,-0.71055 -0.20305,0.24816 0.86144,2.29009 1.50327,3.46645 a 28.387941,28.387941 0 0 0 16.72817,-25.88266 28.387941,28.387941 0 0 0 -28.38793,-28.387921 z m -11.59102,6.314331 a 3.2563088,4.6283699 48.537006 0 1 2.04122,0.8351 3.2563088,4.6283699 48.537006 0 1 -1.27176,5.50044 3.2563088,4.6283699 48.537006 0 1 -5.63376,0.66404 3.2563088,4.6283699 48.537006 0 1 1.27175,-5.50044 3.2563088,4.6283699 48.537006 0 1 3.59255,-1.49914 z m -7.30911,8.60878 a 1.9035575,2.8618992 39.175609 0 1 1.23868,0.77825 1.9035575,2.8618992 39.175609 0 1 -1.32033,3.56826 1.9035575,2.8618992 39.175609 0 1 -3.02463,-0.0791 1.9035575,2.8618992 39.175609 0 1 1.32034,-3.56774 1.9035575,2.8618992 39.175609 0 1 1.78594,-0.6997 z"
       inkscape:export-filename="path1.png"
       inkscape:export-xdpi="96"
       inkscape:export-ydpi="96" /><path
       style="font-weight:bold;font-size:48.5113px;line-height:15.7;font-family:Oswald;-inkscape-font-specification:'Oswald Bold';letter-spacing:4.85481px;fill:#3cd0ac;stroke-width:6.09637"
       d="m 213.41017,145.16331 v -39.29415 h 8.68353 v 16.05724 l 6.59753,-16.05724 h 8.48948 l -7.27669,17.75514 7.61627,21.53901 h -8.82906 l -5.67582,-17.36704 -0.92171,1.55236 v 15.81468 z m 32.4092,0 v -39.29415 h 8.68353 v 39.29415 z m 22.94956,0 v -32.84214 h -5.91838 v -6.45201 h 20.52028 v 6.45201 h -5.86987 v 32.84214 z m 33.76755,0.58214 q -4.41452,0 -6.98562,-1.55236 -2.5711,-1.55236 -3.68686,-4.46304 -1.11576,-2.91068 -1.11576,-6.93712 v -14.6019 q 0,-4.07495 1.11576,-6.93711 1.11576,-2.86217 3.68686,-4.36602 2.5711,-1.55236 6.98562,-1.55236 4.46304,0 7.03414,1.55236 2.61961,1.50385 3.73537,4.36602 1.11576,2.86216 1.11576,6.93711 v 14.6019 q 0,4.02644 -1.11576,6.93712 -1.11576,2.91068 -3.73537,4.46304 -2.5711,1.55236 -7.03414,1.55236 z m 0,-6.16093 q 1.35832,0 1.98897,-0.67916 0.63064,-0.67916 0.82469,-1.74641 0.19405,-1.06725 0.19405,-2.18301 v -18.9194 q 0,-1.16428 -0.19405,-2.18301 -0.19405,-1.06725 -0.82469,-1.74641 -0.63065,-0.67916 -1.98897,-0.67916 -1.26129,0 -1.89194,0.67916 -0.63064,0.67916 -0.82469,1.74641 -0.19404,1.01873 -0.19404,2.18301 v 18.9194 q 0,1.11576 0.14553,2.18301 0.19405,1.06725 0.77618,1.74641 0.63065,0.67916 1.98896,0.67916 z"
       id="text4"
       aria-label="KITO" /></g></svg>